<mxfile host="app.diagrams.net" modified="2025-08-05T00:00:00.000Z" agent="5.0" etag="drawio-diagram-updated" version="24.6.4" type="device">
  <diagram name="Confluent-Multi-Cloud-Architecture" id="confluent-architecture">
    <mxGraphModel dx="1800" dy="1200" grid="1" gridSize="10" guides="1" tooltips="1" connect="1" arrows="1" fold="1" page="1" pageScale="1" pageWidth="2000" pageHeight="1400" math="0" shadow="0">
      <root>
        <mxCell id="0" />
        <mxCell id="1" parent="0" />
        
        <!-- Main Title with Background -->
        <mxCell id="title-bg" value="" style="rounded=1;whiteSpace=wrap;html=1;fillColor=#1F4E79;strokeColor=#FFFFFF;strokeWidth=2;" vertex="1" parent="1">
          <mxGeometry x="400" y="10" width="1200" height="60" as="geometry" />
        </mxCell>
        
        <mxCell id="title" value="🚀 Confluent Cloud Multi-Cloud Terraform Architecture" style="text;html=1;strokeColor=none;fillColor=none;align=center;verticalAlign=middle;whiteSpace=wrap;rounded=0;fontSize=28;fontStyle=1;fontColor=#FFFFFF;" vertex="1" parent="1">
          <mxGeometry x="420" y="20" width="1160" height="40" as="geometry" />
        </mxCell>
        
        <!-- Subtitle -->
        <mxCell id="subtitle" value="Production-Ready Infrastructure as Code • Multi-Environment • Multi-Cloud Deployment" style="text;html=1;strokeColor=none;fillColor=none;align=center;verticalAlign=middle;whiteSpace=wrap;rounded=0;fontSize=14;fontStyle=2;fontColor=#666666;" vertex="1" parent="1">
          <mxGeometry x="450" y="75" width="1100" height="25" as="geometry" />
        </mxCell>

        <!-- Terraform Control Plane with Enhanced Styling -->
        <mxCell id="terraform-container" value="🔧 Terraform Control Plane" style="swimlane;whiteSpace=wrap;html=1;fontSize=18;fontStyle=1;fillColor=#E1D5E7;strokeColor=#9673A6;rounded=1;shadow=1;" vertex="1" parent="1">
          <mxGeometry x="50" y="120" width="350" height="320" as="geometry" />
        </mxCell>
        
        <mxCell id="main-tf" value="main.tf&#xa;🎯 Orchestration&#xa;Environment Selection" style="rounded=1;whiteSpace=wrap;html=1;fillColor=#F8CECC;strokeColor=#B85450;fontSize=12;fontStyle=1;shadow=1;" vertex="1" parent="terraform-container">
          <mxGeometry x="20" y="40" width="140" height="60" as="geometry" />
        </mxCell>
        
        <mxCell id="variables-tf" value="variables.tf&#xa;⚙️ Variable Definitions&#xa;Cloud Configurations" style="rounded=1;whiteSpace=wrap;html=1;fillColor=#FFF2CC;strokeColor=#D6B656;fontSize=12;fontStyle=1;shadow=1;" vertex="1" parent="terraform-container">
          <mxGeometry x="180" y="40" width="140" height="60" as="geometry" />
        </mxCell>
        
        <mxCell id="outputs-tf" value="outputs.tf&#xa;📊 Resource Outputs&#xa;Connection Details" style="rounded=1;whiteSpace=wrap;html=1;fillColor=#D5E8D4;strokeColor=#82B366;fontSize=12;fontStyle=1;shadow=1;" vertex="1" parent="terraform-container">
          <mxGeometry x="20" y="120" width="140" height="60" as="geometry" />
        </mxCell>
        
        <mxCell id="gitignore-tf" value=".gitignore&#xa;🔒 Security&#xa;Exclude Sensitive Files" style="rounded=1;whiteSpace=wrap;html=1;fillColor=#FFE6CC;strokeColor=#D79B00;fontSize=11;fontStyle=1;shadow=1;" vertex="1" parent="terraform-container">
          <mxGeometry x="180" y="120" width="140" height="60" as="geometry" />
        </mxCell>
        
        <mxCell id="sandbox-vars" value="terraform.tfvars&#xa;🏖️ Sandbox Config&#xa;✅ Currently Active" style="rounded=1;whiteSpace=wrap;html=1;fillColor=#D5E8D4;strokeColor=#82B366;fontSize=11;fontStyle=1;shadow=1;" vertex="1" parent="terraform-container">
          <mxGeometry x="20" y="200" width="140" height="50" as="geometry" />
        </mxCell>
        
        <mxCell id="nonprod-vars" value="non-prod.tfvars&#xa;🔧 Non-Production&#xa;📋 Ready to Deploy" style="rounded=1;whiteSpace=wrap;html=1;fillColor=#FFE6CC;strokeColor=#D79B00;fontSize=11;fontStyle=1;shadow=1;" vertex="1" parent="terraform-container">
          <mxGeometry x="180" y="200" width="140" height="50" as="geometry" />
        </mxCell>
        
        <mxCell id="prod-vars" value="prod.tfvars&#xa;🏭 Production&#xa;🚀 Enterprise Ready" style="rounded=1;whiteSpace=wrap;html=1;fillColor=#F8CECC;strokeColor=#B85450;fontSize=11;fontStyle=1;shadow=1;" vertex="1" parent="terraform-container">
          <mxGeometry x="100" y="260" width="140" height="50" as="geometry" />
        </mxCell>

        <!-- Confluent Cloud Organization with Enhanced Layout -->
        <mxCell id="confluent-org" value="☁️ Confluent Cloud Organization" style="swimlane;whiteSpace=wrap;html=1;fontSize=20;fontStyle=1;fillColor=#F0F8FF;strokeColor=#0066CC;rounded=1;shadow=1;" vertex="1" parent="1">
          <mxGeometry x="450" y="120" width="1500" height="1200" as="geometry" />
        </mxCell>

        <!-- Sandbox Environment with Success Indicators -->
        <mxCell id="sandbox-env" value="🏖️ Sandbox Environment (✅ Currently Deployed & Tested)" style="swimlane;whiteSpace=wrap;html=1;fontSize=16;fontStyle=1;fillColor=#D5E8D4;strokeColor=#82B366;rounded=1;shadow=1;" vertex="1" parent="confluent-org">
          <mxGeometry x="30" y="50" width="1440" height="320" as="geometry" />
        </mxCell>

        <!-- AWS Sandbox with Enhanced Details -->
        <mxCell id="aws-sandbox" value="🌐 AWS Infrastructure (us-east-1)" style="swimlane;whiteSpace=wrap;html=1;fontSize=14;fontStyle=1;fillColor=#FFF2CC;strokeColor=#D6B656;rounded=1;shadow=1;" vertex="1" parent="sandbox-env">
          <mxGeometry x="30" y="50" width="680" height="250" as="geometry" />
        </mxCell>
        
        <mxCell id="aws-kafka-sb" value="🗄️ Kafka Cluster&#xa;ID: lkc-8rgn0m&#xa;Type: Basic Tier&#xa;Status: ✅ Active" style="rounded=1;whiteSpace=wrap;html=1;fillColor=#F8CECC;strokeColor=#B85450;fontSize=11;fontStyle=1;shadow=1;" vertex="1" parent="aws-sandbox">
          <mxGeometry x="20" y="50" width="130" height="70" as="geometry" />
        </mxCell>
        
        <mxCell id="aws-flink-sb" value="⚡ Flink Pool&#xa;ID: lfcp-rmjy87&#xa;CFU: 5&#xa;Status: ✅ Running" style="rounded=1;whiteSpace=wrap;html=1;fillColor=#E1D5E7;strokeColor=#9673A6;fontSize=11;fontStyle=1;shadow=1;" vertex="1" parent="aws-sandbox">
          <mxGeometry x="170" y="50" width="130" height="70" as="geometry" />
        </mxCell>
        
        <mxCell id="aws-topics-sb" value="📄 Topics (3x)&#xa;• dummy_topic&#xa;• dummy_topic_with_schema&#xa;• http_source_topic&#xa;Partitions: 6 each" style="rounded=1;whiteSpace=wrap;html=1;fillColor=#DAE8FC;strokeColor=#6C8EBF;fontSize=10;shadow=1;" vertex="1" parent="aws-sandbox">
          <mxGeometry x="320" y="50" width="140" height="90" as="geometry" />
        </mxCell>
        
        <mxCell id="aws-connector-sb" value="🔗 HTTP Connector&#xa;ID: lcc-69g5p6&#xa;Type: Source&#xa;Status: ✅ Running" style="rounded=1;whiteSpace=wrap;html=1;fillColor=#FFE6CC;strokeColor=#D79B00;fontSize=10;fontStyle=1;shadow=1;" vertex="1" parent="aws-sandbox">
          <mxGeometry x="480" y="50" width="100" height="70" as="geometry" />
        </mxCell>
        
        <mxCell id="aws-sa-sb" value="👤 Service Accounts&#xa;• app-manager-XXX&#xa;• env-admin-XXX&#xa;RBAC: Configured" style="rounded=1;whiteSpace=wrap;html=1;fillColor=#F0F8FF;strokeColor=#0066CC;fontSize=10;shadow=1;" vertex="1" parent="aws-sandbox">
          <mxGeometry x="20" y="140" width="150" height="80" as="geometry" />
        </mxCell>
        
        <mxCell id="aws-schemas-sb" value="📋 Schema Registry&#xa;• user_id_key.avsc&#xa;• user_profile_value.avsc&#xa;Environment: SANDBOX" style="rounded=1;whiteSpace=wrap;html=1;fillColor=#E6F3FF;strokeColor=#4D9EE8;fontSize=10;shadow=1;" vertex="1" parent="aws-sandbox">
          <mxGeometry x="190" y="150" width="150" height="70" as="geometry" />
        </mxCell>
        
        <mxCell id="aws-sql-sb" value="💻 Flink SQL&#xa;• Advanced Queries&#xa;• Stream Processing&#xa;• Table Creation" style="rounded=1;whiteSpace=wrap;html=1;fillColor=#FFCCFF;strokeColor=#CC66CC;fontSize=10;shadow=1;" vertex="1" parent="aws-sandbox">
          <mxGeometry x="360" y="160" width="130" height="60" as="geometry" />
        </mxCell>

        <!-- Azure Sandbox with Enhanced Details -->
        <mxCell id="azure-sandbox" value="🌐 Azure Infrastructure (eastus)" style="swimlane;whiteSpace=wrap;html=1;fontSize=14;fontStyle=1;fillColor=#E1D5E7;strokeColor=#9673A6;rounded=1;shadow=1;" vertex="1" parent="sandbox-env">
          <mxGeometry x="730" y="50" width="680" height="250" as="geometry" />
        </mxCell>
        
        <mxCell id="azure-kafka-sb" value="🗄️ Kafka Cluster&#xa;ID: lkc-0z30g9&#xa;Type: Basic Tier&#xa;Status: ✅ Active" style="rounded=1;whiteSpace=wrap;html=1;fillColor=#F8CECC;strokeColor=#B85450;fontSize=11;fontStyle=1;shadow=1;" vertex="1" parent="azure-sandbox">
          <mxGeometry x="20" y="50" width="130" height="70" as="geometry" />
        </mxCell>
        
        <mxCell id="azure-flink-sb" value="⚡ Flink Pool&#xa;ID: lfcp-2g1mz2&#xa;CFU: 5&#xa;Status: ✅ Running" style="rounded=1;whiteSpace=wrap;html=1;fillColor=#E1D5E7;strokeColor=#9673A6;fontSize=11;fontStyle=1;shadow=1;" vertex="1" parent="azure-sandbox">
          <mxGeometry x="170" y="50" width="130" height="70" as="geometry" />
        </mxCell>
        
        <mxCell id="azure-topics-sb" value="📄 Topics (3x)&#xa;• dummy_topic&#xa;• dummy_topic_with_schema&#xa;• http_source_topic&#xa;Partitions: 6 each" style="rounded=1;whiteSpace=wrap;html=1;fillColor=#DAE8FC;strokeColor=#6C8EBF;fontSize=10;shadow=1;" vertex="1" parent="azure-sandbox">
          <mxGeometry x="320" y="50" width="140" height="90" as="geometry" />
        </mxCell>
        
        <mxCell id="azure-connector-sb" value="🔗 HTTP Connector&#xa;ID: lcc-w32nrj&#xa;Type: Source&#xa;Status: ✅ Running" style="rounded=1;whiteSpace=wrap;html=1;fillColor=#FFE6CC;strokeColor=#D79B00;fontSize=10;fontStyle=1;shadow=1;" vertex="1" parent="azure-sandbox">
          <mxGeometry x="480" y="50" width="100" height="70" as="geometry" />
        </mxCell>
        
        <mxCell id="azure-sa-sb" value="👤 Service Accounts&#xa;• app-manager-XXX&#xa;• env-admin-XXX&#xa;RBAC: Configured" style="rounded=1;whiteSpace=wrap;html=1;fillColor=#F0F8FF;strokeColor=#0066CC;fontSize=10;shadow=1;" vertex="1" parent="azure-sandbox">
          <mxGeometry x="20" y="140" width="150" height="80" as="geometry" />
        </mxCell>
        
        <mxCell id="azure-schemas-sb" value="📋 Schema Registry&#xa;• user_id_key.avsc&#xa;• user_profile_value.avsc&#xa;Environment: SANDBOX" style="rounded=1;whiteSpace=wrap;html=1;fillColor=#E6F3FF;strokeColor=#4D9EE8;fontSize=10;shadow=1;" vertex="1" parent="azure-sandbox">
          <mxGeometry x="190" y="150" width="150" height="70" as="geometry" />
        </mxCell>
        
        <mxCell id="azure-sql-sb" value="💻 Flink SQL&#xa;• Advanced Queries&#xa;• Stream Processing&#xa;• Table Creation" style="rounded=1;whiteSpace=wrap;html=1;fillColor=#FFCCFF;strokeColor=#CC66CC;fontSize=10;shadow=1;" vertex="1" parent="azure-sandbox">
          <mxGeometry x="360" y="160" width="130" height="60" as="geometry" />
        </mxCell>

        <!-- Non-Production Environment -->
        <mxCell id="nonprod-env" value="🔧 Non-Production Environment (📋 Ready to Deploy)" style="swimlane;whiteSpace=wrap;html=1;fontSize=16;fontStyle=1;fillColor=#FFE6CC;strokeColor=#D79B00;rounded=1;shadow=1;" vertex="1" parent="confluent-org">
          <mxGeometry x="30" y="390" width="1440" height="320" as="geometry" />
        </mxCell>

        <!-- AWS Non-Prod Enhanced -->
        <mxCell id="aws-nonprod" value="🌐 AWS Non-Production" style="swimlane;whiteSpace=wrap;html=1;fontSize=14;fontStyle=1;fillColor=#FFF2CC;strokeColor=#D6B656;rounded=1;shadow=1;" vertex="1" parent="nonprod-env">
          <mxGeometry x="30" y="50" width="680" height="250" as="geometry" />
        </mxCell>
        
        <mxCell id="aws-kafka-np" value="🗄️ Kafka Cluster&#xa;Single Zone&#xa;Cost Optimized&#xa;Status: 📋 Planned" style="rounded=1;whiteSpace=wrap;html=1;fillColor=#F8CECC;strokeColor=#B85450;fontSize=11;shadow=1;" vertex="1" parent="aws-nonprod">
          <mxGeometry x="30" y="50" width="130" height="70" as="geometry" />
        </mxCell>
        
        <mxCell id="aws-flink-np" value="⚡ Flink Pool&#xa;5 CFU&#xa;Development Scale&#xa;Status: 📋 Planned" style="rounded=1;whiteSpace=wrap;html=1;fillColor=#E1D5E7;strokeColor=#9673A6;fontSize=11;shadow=1;" vertex="1" parent="aws-nonprod">
          <mxGeometry x="180" y="50" width="130" height="70" as="geometry" />
        </mxCell>
        
        <mxCell id="aws-topics-np" value="📄 Topics (9x)&#xa;Multi-Environment:&#xa;• DEV (3 topics)&#xa;• QA (3 topics)&#xa;• UAT (3 topics)" style="rounded=1;whiteSpace=wrap;html=1;fillColor=#DAE8FC;strokeColor=#6C8EBF;fontSize=10;shadow=1;" vertex="1" parent="aws-nonprod">
          <mxGeometry x="330" y="50" width="150" height="90" as="geometry" />
        </mxCell>
        
        <mxCell id="aws-env-np" value="🏷️ Sub-Environments&#xa;• Development&#xa;• Quality Assurance&#xa;• User Acceptance Testing" style="rounded=1;whiteSpace=wrap;html=1;fillColor=#F0FFFF;strokeColor=#17A2B8;fontSize=10;shadow=1;" vertex="1" parent="aws-nonprod">
          <mxGeometry x="500" y="50" width="160" height="80" as="geometry" />
        </mxCell>
        
        <mxCell id="aws-features-np" value="🎯 Features&#xa;• Schema Evolution&#xa;• CI/CD Integration&#xa;• Automated Testing" style="rounded=1;whiteSpace=wrap;html=1;fillColor=#E8F5E8;strokeColor=#28A745;fontSize=10;shadow=1;" vertex="1" parent="aws-nonprod">
          <mxGeometry x="30" y="150" width="150" height="80" as="geometry" />
        </mxCell>

        <!-- Azure Non-Prod Enhanced -->
        <mxCell id="azure-nonprod" value="🌐 Azure Non-Production" style="swimlane;whiteSpace=wrap;html=1;fontSize=14;fontStyle=1;fillColor=#E1D5E7;strokeColor=#9673A6;rounded=1;shadow=1;" vertex="1" parent="nonprod-env">
          <mxGeometry x="730" y="50" width="680" height="250" as="geometry" />
        </mxCell>
        
        <mxCell id="azure-kafka-np" value="🗄️ Kafka Cluster&#xa;Single Zone&#xa;Cost Optimized&#xa;Status: 📋 Planned" style="rounded=1;whiteSpace=wrap;html=1;fillColor=#F8CECC;strokeColor=#B85450;fontSize=11;shadow=1;" vertex="1" parent="azure-nonprod">
          <mxGeometry x="30" y="50" width="130" height="70" as="geometry" />
        </mxCell>
        
        <mxCell id="azure-flink-np" value="⚡ Flink Pool&#xa;5 CFU&#xa;Development Scale&#xa;Status: 📋 Planned" style="rounded=1;whiteSpace=wrap;html=1;fillColor=#E1D5E7;strokeColor=#9673A6;fontSize=11;shadow=1;" vertex="1" parent="azure-nonprod">
          <mxGeometry x="180" y="50" width="130" height="70" as="geometry" />
        </mxCell>
        
        <mxCell id="azure-topics-np" value="📄 Topics (9x)&#xa;Multi-Environment:&#xa;• DEV (3 topics)&#xa;• QA (3 topics)&#xa;• UAT (3 topics)" style="rounded=1;whiteSpace=wrap;html=1;fillColor=#DAE8FC;strokeColor=#6C8EBF;fontSize=10;shadow=1;" vertex="1" parent="azure-nonprod">
          <mxGeometry x="330" y="50" width="150" height="90" as="geometry" />
        </mxCell>
        
        <mxCell id="azure-env-np" value="🏷️ Sub-Environments&#xa;• Development&#xa;• Quality Assurance&#xa;• User Acceptance Testing" style="rounded=1;whiteSpace=wrap;html=1;fillColor=#F0FFFF;strokeColor=#17A2B8;fontSize=10;shadow=1;" vertex="1" parent="azure-nonprod">
          <mxGeometry x="500" y="50" width="160" height="80" as="geometry" />
        </mxCell>
        
        <mxCell id="azure-features-np" value="🎯 Features&#xa;• Schema Evolution&#xa;• CI/CD Integration&#xa;• Automated Testing" style="rounded=1;whiteSpace=wrap;html=1;fillColor=#E8F5E8;strokeColor=#28A745;fontSize=10;shadow=1;" vertex="1" parent="azure-nonprod">
          <mxGeometry x="30" y="150" width="150" height="80" as="geometry" />
        </mxCell>

        <!-- Production Environment -->
        <mxCell id="prod-env" value="🏭 Production Environment (🚀 Enterprise Ready)" style="swimlane;whiteSpace=wrap;html=1;fontSize=16;fontStyle=1;fillColor=#F8CECC;strokeColor=#B85450;rounded=1;shadow=1;" vertex="1" parent="confluent-org">
          <mxGeometry x="30" y="730" width="1440" height="320" as="geometry" />
        </mxCell>

        <!-- AWS Production Enhanced -->
        <mxCell id="aws-prod" value="🌐 AWS Production" style="swimlane;whiteSpace=wrap;html=1;fontSize=14;fontStyle=1;fillColor=#FFF2CC;strokeColor=#D6B656;rounded=1;shadow=1;" vertex="1" parent="prod-env">
          <mxGeometry x="30" y="50" width="680" height="250" as="geometry" />
        </mxCell>
        
        <mxCell id="aws-kafka-prod" value="🗄️ Kafka Cluster&#xa;Multi-Zone (3 AZs)&#xa;High Availability&#xa;Status: 🚀 Ready" style="rounded=1;whiteSpace=wrap;html=1;fillColor=#F8CECC;strokeColor=#B85450;fontSize=11;fontStyle=1;shadow=1;" vertex="1" parent="aws-prod">
          <mxGeometry x="30" y="50" width="130" height="80" as="geometry" />
        </mxCell>
        
        <mxCell id="aws-flink-prod" value="⚡ Flink Pool&#xa;10 CFU&#xa;Production Scale&#xa;Auto-scaling" style="rounded=1;whiteSpace=wrap;html=1;fillColor=#E1D5E7;strokeColor=#9673A6;fontSize=11;fontStyle=1;shadow=1;" vertex="1" parent="aws-prod">
          <mxGeometry x="180" y="50" width="130" height="80" as="geometry" />
        </mxCell>
        
        <mxCell id="aws-security-prod" value="🔒 Enterprise Security&#xa;• Advanced RBAC&#xa;• Audit Logging&#xa;• Compliance Ready" style="rounded=1;whiteSpace=wrap;html=1;fillColor=#FFE6CC;strokeColor=#D79B00;fontSize=10;fontStyle=1;shadow=1;" vertex="1" parent="aws-prod">
          <mxGeometry x="330" y="50" width="150" height="80" as="geometry" />
        </mxCell>
        
        <mxCell id="aws-monitoring-prod" value="📊 Monitoring&#xa;• Real-time Metrics&#xa;• Alerting&#xa;• Performance Tuning" style="rounded=1;whiteSpace=wrap;html=1;fillColor=#E8F4FD;strokeColor=#1F77B4;fontSize=10;shadow=1;" vertex="1" parent="aws-prod">
          <mxGeometry x="500" y="50" width="150" height="80" as="geometry" />
        </mxCell>
        
        <mxCell id="aws-disaster-prod" value="💾 Disaster Recovery&#xa;• Cross-Region Backup&#xa;• RTO: < 1 hour&#xa;• RPO: < 15 minutes" style="rounded=1;whiteSpace=wrap;html=1;fillColor=#FFF0F0;strokeColor=#DC143C;fontSize=10;shadow=1;" vertex="1" parent="aws-prod">
          <mxGeometry x="30" y="150" width="150" height="80" as="geometry" />
        </mxCell>
        
        <mxCell id="aws-performance-prod" value="⚡ Performance&#xa;• 6 Partitions&#xa;• Optimized Throughput&#xa;• Low Latency" style="rounded=1;whiteSpace=wrap;html=1;fillColor=#F0FFF0;strokeColor=#008000;fontSize=10;shadow=1;" vertex="1" parent="aws-prod">
          <mxGeometry x="200" y="150" width="150" height="80" as="geometry" />
        </mxCell>

        <!-- Azure Production Enhanced -->
        <mxCell id="azure-prod" value="🌐 Azure Production" style="swimlane;whiteSpace=wrap;html=1;fontSize=14;fontStyle=1;fillColor=#E1D5E7;strokeColor=#9673A6;rounded=1;shadow=1;" vertex="1" parent="prod-env">
          <mxGeometry x="730" y="50" width="680" height="250" as="geometry" />
        </mxCell>
        
        <mxCell id="azure-kafka-prod" value="🗄️ Kafka Cluster&#xa;Multi-Zone (3 AZs)&#xa;High Availability&#xa;Status: 🚀 Ready" style="rounded=1;whiteSpace=wrap;html=1;fillColor=#F8CECC;strokeColor=#B85450;fontSize=11;fontStyle=1;shadow=1;" vertex="1" parent="azure-prod">
          <mxGeometry x="30" y="50" width="130" height="80" as="geometry" />
        </mxCell>
        
        <mxCell id="azure-flink-prod" value="⚡ Flink Pool&#xa;10 CFU&#xa;Production Scale&#xa;Auto-scaling" style="rounded=1;whiteSpace=wrap;html=1;fillColor=#E1D5E7;strokeColor=#9673A6;fontSize=11;fontStyle=1;shadow=1;" vertex="1" parent="azure-prod">
          <mxGeometry x="180" y="50" width="130" height="80" as="geometry" />
        </mxCell>
        
        <mxCell id="azure-security-prod" value="🔒 Enterprise Security&#xa;• Advanced RBAC&#xa;• Audit Logging&#xa;• Compliance Ready" style="rounded=1;whiteSpace=wrap;html=1;fillColor=#FFE6CC;strokeColor=#D79B00;fontSize=10;fontStyle=1;shadow=1;" vertex="1" parent="azure-prod">
          <mxGeometry x="330" y="50" width="150" height="80" as="geometry" />
        </mxCell>
        
        <mxCell id="azure-monitoring-prod" value="📊 Monitoring&#xa;• Real-time Metrics&#xa;• Alerting&#xa;• Performance Tuning" style="rounded=1;whiteSpace=wrap;html=1;fillColor=#E8F4FD;strokeColor=#1F77B4;fontSize=10;shadow=1;" vertex="1" parent="azure-prod">
          <mxGeometry x="500" y="50" width="150" height="80" as="geometry" />
        </mxCell>
        
        <mxCell id="azure-disaster-prod" value="💾 Disaster Recovery&#xa;• Cross-Region Backup&#xa;• RTO: < 1 hour&#xa;• RPO: < 15 minutes" style="rounded=1;whiteSpace=wrap;html=1;fillColor=#FFF0F0;strokeColor=#DC143C;fontSize=10;shadow=1;" vertex="1" parent="azure-prod">
          <mxGeometry x="30" y="150" width="150" height="80" as="geometry" />
        </mxCell>
        
        <mxCell id="azure-performance-prod" value="⚡ Performance&#xa;• 6 Partitions&#xa;• Optimized Throughput&#xa;• Low Latency" style="rounded=1;whiteSpace=wrap;html=1;fillColor=#F0FFF0;strokeColor=#008000;fontSize=10;shadow=1;" vertex="1" parent="azure-prod">
          <mxGeometry x="200" y="150" width="150" height="80" as="geometry" />
        </mxCell>

        <!-- Enhanced Connection Lines -->
        
        <!-- Terraform to Environments with Enhanced Styling -->
        <mxCell id="tf-to-sandbox" value="✅ Active Deployment" style="endArrow=classic;html=1;rounded=0;strokeColor=#82B366;strokeWidth=4;labelBackgroundColor=#D5E8D4;fontSize=10;fontStyle=1;" edge="1" parent="1" source="main-tf" target="sandbox-env">
          <mxGeometry width="50" height="50" relative="1" as="geometry">
            <mxPoint x="300" y="180" as="sourcePoint" />
            <mxPoint x="350" y="130" as="targetPoint" />
          </mxGeometry>
        </mxCell>
        
        <mxCell id="tf-to-nonprod" value="📋 Ready to Deploy" style="endArrow=classic;html=1;rounded=0;strokeColor=#D79B00;strokeWidth=3;dashed=1;labelBackgroundColor=#FFE6CC;fontSize=10;fontStyle=1;" edge="1" parent="1" source="main-tf" target="nonprod-env">
          <mxGeometry width="50" height="50" relative="1" as="geometry">
            <mxPoint x="180" y="220" as="sourcePoint" />
            <mxPoint x="230" y="170" as="targetPoint" />
          </mxGeometry>
        </mxCell>
        
        <mxCell id="tf-to-prod" value="🚀 Enterprise Ready" style="endArrow=classic;html=1;rounded=0;strokeColor=#B85450;strokeWidth=3;dashed=1;labelBackgroundColor=#F8CECC;fontSize=10;fontStyle=1;" edge="1" parent="1" source="main-tf" target="prod-env">
          <mxGeometry width="50" height="50" relative="1" as="geometry">
            <mxPoint x="180" y="280" as="sourcePoint" />
            <mxPoint x="230" y="230" as="targetPoint" />
          </mxGeometry>
        </mxCell>

        <!-- Resource Relationship Lines within Sandbox -->
        <mxCell id="aws-kafka-to-flink" value="" style="endArrow=classic;html=1;rounded=0;strokeColor=#9673A6;strokeWidth=2;" edge="1" parent="1" source="aws-kafka-sb" target="aws-flink-sb">
          <mxGeometry width="50" height="50" relative="1" as="geometry">
            <mxPoint x="600" y="250" as="sourcePoint" />
            <mxPoint x="650" y="200" as="targetPoint" />
          </mxGeometry>
        </mxCell>
        
        <mxCell id="azure-kafka-to-flink" value="" style="endArrow=classic;html=1;rounded=0;strokeColor=#9673A6;strokeWidth=2;" edge="1" parent="1" source="azure-kafka-sb" target="azure-flink-sb">
          <mxGeometry width="50" height="50" relative="1" as="geometry">
            <mxPoint x="1300" y="250" as="sourcePoint" />
            <mxPoint x="1350" y="200" as="targetPoint" />
          </mxGeometry>
        </mxCell>

        <!-- Enhanced Status Legend with Better Positioning -->
        <mxCell id="legend" value="📊 Status & Resource Legend" style="swimlane;whiteSpace=wrap;html=1;fontSize=16;fontStyle=1;fillColor=#F8F9FA;strokeColor=#6C757D;rounded=1;shadow=1;" vertex="1" parent="1">
          <mxGeometry x="50" y="460" width="350" height="220" as="geometry" />
        </mxCell>
        
        <mxCell id="deployed-status" value="✅ Currently Deployed & Tested" style="rounded=1;whiteSpace=wrap;html=1;fillColor=#D5E8D4;strokeColor=#82B366;fontSize=12;fontStyle=1;shadow=1;" vertex="1" parent="legend">
          <mxGeometry x="20" y="40" width="150" height="35" as="geometry" />
        </mxCell>
        
        <mxCell id="planned-status" value="📋 Configured & Ready" style="rounded=1;whiteSpace=wrap;html=1;fillColor=#FFE6CC;strokeColor=#D79B00;fontSize=12;shadow=1;" vertex="1" parent="legend">
          <mxGeometry x="180" y="40" width="150" height="35" as="geometry" />
        </mxCell>
        
        <mxCell id="terraform-status" value="🔧 Terraform Infrastructure" style="rounded=1;whiteSpace=wrap;html=1;fillColor=#E1D5E7;strokeColor=#9673A6;fontSize=12;shadow=1;" vertex="1" parent="legend">
          <mxGeometry x="20" y="85" width="150" height="35" as="geometry" />
        </mxCell>
        
        <mxCell id="production-status" value="🏭 Production Enterprise" style="rounded=1;whiteSpace=wrap;html=1;fillColor=#F8CECC;strokeColor=#B85450;fontSize=12;shadow=1;" vertex="1" parent="legend">
          <mxGeometry x="180" y="85" width="150" height="35" as="geometry" />
        </mxCell>
        
        <mxCell id="aws-legend" value="🌐 AWS (us-east-1)" style="rounded=1;whiteSpace=wrap;html=1;fillColor=#FFF2CC;strokeColor=#D6B656;fontSize=11;shadow=1;" vertex="1" parent="legend">
          <mxGeometry x="20" y="130" width="100" height="30" as="geometry" />
        </mxCell>
        
        <mxCell id="azure-legend" value="🌐 Azure (eastus)" style="rounded=1;whiteSpace=wrap;html=1;fillColor=#E1D5E7;strokeColor=#9673A6;fontSize=11;shadow=1;" vertex="1" parent="legend">
          <mxGeometry x="130" y="130" width="100" height="30" as="geometry" />
        </mxCell>
        
        <mxCell id="confluent-legend" value="☁️ Confluent Cloud" style="rounded=1;whiteSpace=wrap;html=1;fillColor=#F0F8FF;strokeColor=#0066CC;fontSize=11;shadow=1;" vertex="1" parent="legend">
          <mxGeometry x="240" y="130" width="90" height="30" as="geometry" />
        </mxCell>

        <!-- Enhanced Key Features Box -->
        <mxCell id="features" value="🎯 Architecture Key Features & Capabilities" style="swimlane;whiteSpace=wrap;html=1;fontSize=16;fontStyle=1;fillColor=#F0F8FF;strokeColor=#0066CC;rounded=1;shadow=1;" vertex="1" parent="1">
          <mxGeometry x="50" y="700" width="350" height="280" as="geometry" />
        </mxCell>
        
        <mxCell id="feature1" value="🌍 Multi-Cloud Strategy (AWS + Azure)" style="text;html=1;strokeColor=none;fillColor=none;align=left;verticalAlign=middle;whiteSpace=wrap;rounded=0;fontSize=12;fontStyle=1;" vertex="1" parent="features">
          <mxGeometry x="20" y="40" width="310" height="25" as="geometry" />
        </mxCell>
        
        <mxCell id="feature2" value="🏗️ Environment Isolation & Management" style="text;html=1;strokeColor=none;fillColor=none;align=left;verticalAlign=middle;whiteSpace=wrap;rounded=0;fontSize=12;fontStyle=1;" vertex="1" parent="features">
          <mxGeometry x="20" y="70" width="310" height="25" as="geometry" />
        </mxCell>
        
        <mxCell id="feature3" value="⚡ Real-time Stream Processing (Flink)" style="text;html=1;strokeColor=none;fillColor=none;align=left;verticalAlign=middle;whiteSpace=wrap;rounded=0;fontSize=12;fontStyle=1;" vertex="1" parent="features">
          <mxGeometry x="20" y="100" width="310" height="25" as="geometry" />
        </mxCell>
        
        <mxCell id="feature4" value="🔒 Enterprise Security & RBAC" style="text;html=1;strokeColor=none;fillColor=none;align=left;verticalAlign=middle;whiteSpace=wrap;rounded=0;fontSize=12;fontStyle=1;" vertex="1" parent="features">
          <mxGeometry x="20" y="130" width="310" height="25" as="geometry" />
        </mxCell>
        
        <mxCell id="feature5" value="📊 Schema Registry & Evolution" style="text;html=1;strokeColor=none;fillColor=none;align=left;verticalAlign=middle;whiteSpace=wrap;rounded=0;fontSize=12;fontStyle=1;" vertex="1" parent="features">
          <mxGeometry x="20" y="160" width="310" height="25" as="geometry" />
        </mxCell>
        
        <mxCell id="feature6" value="🔗 HTTP Source Connectors & Integration" style="text;html=1;strokeColor=none;fillColor=none;align=left;verticalAlign=middle;whiteSpace=wrap;rounded=0;fontSize=12;fontStyle=1;" vertex="1" parent="features">
          <mxGeometry x="20" y="190" width="310" height="25" as="geometry" />
        </mxCell>
        
        <mxCell id="feature7" value="🚀 Infrastructure as Code (Terraform)" style="text;html=1;strokeColor=none;fillColor=none;align=left;verticalAlign=middle;whiteSpace=wrap;rounded=0;fontSize=12;fontStyle=1;" vertex="1" parent="features">
          <mxGeometry x="20" y="220" width="310" height="25" as="geometry" />
        </mxCell>

        <!-- Enhanced Deployment Status Info -->
        <mxCell id="deployment-info" value="📈 Current Deployment Status & Metrics" style="swimlane;whiteSpace=wrap;html=1;fontSize=16;fontStyle=1;fillColor=#E8F4FD;strokeColor=#0288D1;rounded=1;shadow=1;" vertex="1" parent="1">
          <mxGeometry x="50" y="1000" width="350" height="220" as="geometry" />
        </mxCell>
        
        <mxCell id="env-status" value="🏖️ Environment: sandbox-env" style="text;html=1;strokeColor=none;fillColor=none;align=left;verticalAlign=middle;whiteSpace=wrap;rounded=0;fontSize=12;fontStyle=1;" vertex="1" parent="deployment-info">
          <mxGeometry x="20" y="40" width="310" height="20" as="geometry" />
        </mxCell>
        
        <mxCell id="env-id" value="🆔 Environment ID: env-67yrg6" style="text;html=1;strokeColor=none;fillColor=none;align=left;verticalAlign=middle;whiteSpace=wrap;rounded=0;fontSize=11;" vertex="1" parent="deployment-info">
          <mxGeometry x="20" y="65" width="310" height="20" as="geometry" />
        </mxCell>
        
        <mxCell id="aws-cluster-info" value="🌐 AWS Cluster: lkc-8rgn0m (us-east-1)" style="text;html=1;strokeColor=none;fillColor=none;align=left;verticalAlign=middle;whiteSpace=wrap;rounded=0;fontSize=11;" vertex="1" parent="deployment-info">
          <mxGeometry x="20" y="90" width="310" height="20" as="geometry" />
        </mxCell>
        
        <mxCell id="azure-cluster-info" value="🌐 Azure Cluster: lkc-0z30g9 (eastus)" style="text;html=1;strokeColor=none;fillColor=none;align=left;verticalAlign=middle;whiteSpace=wrap;rounded=0;fontSize=11;" vertex="1" parent="deployment-info">
          <mxGeometry x="20" y="115" width="310" height="20" as="geometry" />
        </mxCell>
        
        <mxCell id="resource-count" value="📊 Total Resources: 35 deployed" style="text;html=1;strokeColor=none;fillColor=none;align=left;verticalAlign=middle;whiteSpace=wrap;rounded=0;fontSize=11;fontStyle=1;" vertex="1" parent="deployment-info">
          <mxGeometry x="20" y="140" width="310" height="20" as="geometry" />
        </mxCell>
        
        <mxCell id="deploy-time" value="⏱️ Deployment Time: ~10 minutes" style="text;html=1;strokeColor=none;fillColor=none;align=left;verticalAlign=middle;whiteSpace=wrap;rounded=0;fontSize=11;" vertex="1" parent="deployment-info">
          <mxGeometry x="20" y="165" width="310" height="20" as="geometry" />
        </mxCell>
        
        <mxCell id="final-status" value="✅ Status: Successfully Tested & Destroyed" style="text;html=1;strokeColor=none;fillColor=none;align=left;verticalAlign=middle;whiteSpace=wrap;rounded=0;fontSize=11;fontStyle=1;fontColor=#28A745;" vertex="1" parent="deployment-info">
          <mxGeometry x="20" y="190" width="310" height="20" as="geometry" />
        </mxCell>

        <!-- Resource Statistics Box -->
        <mxCell id="stats-box" value="📊 Resource Breakdown by Environment" style="swimlane;whiteSpace=wrap;html=1;fontSize=16;fontStyle=1;fillColor=#F8F9FA;strokeColor=#6C757D;rounded=1;shadow=1;" vertex="1" parent="1">
          <mxGeometry x="50" y="1240" width="350" height="240" as="geometry" />
        </mxCell>
        
        <mxCell id="sandbox-resources" value="🏖️ Sandbox: 35 resources deployed" style="text;html=1;strokeColor=none;fillColor=none;align=left;verticalAlign=middle;whiteSpace=wrap;rounded=0;fontSize=12;fontStyle=1;fontColor=#28A745;" vertex="1" parent="stats-box">
          <mxGeometry x="20" y="40" width="310" height="25" as="geometry" />
        </mxCell>
        
        <mxCell id="nonprod-resources" value="🔧 Non-Prod: 54 resources configured" style="text;html=1;strokeColor=none;fillColor=none;align=left;verticalAlign=middle;whiteSpace=wrap;rounded=0;fontSize=12;fontStyle=1;fontColor=#FD7E14;" vertex="1" parent="stats-box">
          <mxGeometry x="20" y="70" width="310" height="25" as="geometry" />
        </mxCell>
        
        <mxCell id="prod-resources" value="🏭 Production: 36 resources ready" style="text;html=1;strokeColor=none;fillColor=none;align=left;verticalAlign=middle;whiteSpace=wrap;rounded=0;fontSize=12;fontStyle=1;fontColor=#DC3545;" vertex="1" parent="stats-box">
          <mxGeometry x="20" y="100" width="310" height="25" as="geometry" />
        </mxCell>
        
        <mxCell id="total-resources" value="📈 Total Potential: 125 resources" style="text;html=1;strokeColor=none;fillColor=none;align=left;verticalAlign=middle;whiteSpace=wrap;rounded=0;fontSize=12;fontStyle=1;fontColor=#495057;" vertex="1" parent="stats-box">
          <mxGeometry x="20" y="130" width="310" height="25" as="geometry" />
        </mxCell>
        
        <mxCell id="cost-estimate" value="💰 Cost: Sandbox tested, destroyed" style="text;html=1;strokeColor=none;fillColor=none;align=left;verticalAlign=middle;whiteSpace=wrap;rounded=0;fontSize=11;fontColor=#6F42C1;" vertex="1" parent="stats-box">
          <mxGeometry x="20" y="160" width="310" height="20" as="geometry" />
        </mxCell>
        
        <mxCell id="next-steps" value="🚀 Next: Deploy non-prod or production" style="text;html=1;strokeColor=none;fillColor=none;align=left;verticalAlign=middle;whiteSpace=wrap;rounded=0;fontSize=11;fontStyle=1;fontColor=#0066CC;" vertex="1" parent="stats-box">
          <mxGeometry x="20" y="185" width="310" height="20" as="geometry" />
        </mxCell>

      </root>
    </mxGraphModel>
  </diagram>
</mxfile>
